<?xml version="1.0" encoding="UTF-8" standalone="no"?>
<svg
   viewBox="0 0 128 128"
   version="1.1"
   id="svg12"
   sodipodi:docname="threejs-original (copy).svg"
   inkscape:version="1.1.2 (1:1.1+202202050950+0a00cf5339)"
   xmlns:inkscape="http://www.inkscape.org/namespaces/inkscape"
   xmlns:sodipodi="http://sodipodi.sourceforge.net/DTD/sodipodi-0.dtd"
   xmlns="http://www.w3.org/2000/svg"
   xmlns:svg="http://www.w3.org/2000/svg">
  <defs
     id="defs16" />
  <sodipodi:namedview
     id="namedview14"
     pagecolor="#ffffff"
     bordercolor="#666666"
     borderopacity="1.0"
     inkscape:pageshadow="2"
     inkscape:pageopacity="0.0"
     inkscape:pagecheckerboard="0"
     showgrid="false"
     inkscape:zoom="5.6171875"
     inkscape:cx="64"
     inkscape:cy="64"
     inkscape:window-width="2560"
     inkscape:window-height="1380"
     inkscape:window-x="0"
     inkscape:window-y="28"
     inkscape:window-maximized="1"
     inkscape:current-layer="g10" />
  <g
     color="#000"
     font-weight="400"
     font-family="sans-serif"
     id="g10">
    <path
       style="line-height:normal;font-variant-ligatures:normal;font-variant-position:normal;font-variant-caps:normal;font-variant-numeric:normal;font-variant-alternates:normal;font-variant-east-asian:normal;font-feature-settings:normal;font-variation-settings:normal;text-indent:0;text-align:start;text-decoration-line:none;text-decoration-style:solid;text-decoration-color:#000;text-transform:none;text-orientation:mixed;white-space:normal;shape-padding:0;shape-margin:0;inline-size:0;isolation:auto;mix-blend-mode:normal;solid-color:#000;solid-opacity:1;fill:#ffffff;fill-opacity:1"
       d="M16.219 15.762a1.129 1.129 0 00-1.076 1.399l24.394 98.742a1.129 1.129 0 001.879.544l73.386-70.59a1.129 1.129 0 00-.47-1.899L16.55 15.806a1.129 1.129 0 00-.331-.044zm1.584 2.754l94.024 27.07-70.566 67.877-23.458-94.947z"
       overflow="visible"
       id="path2" />
    <path
       style="line-height:normal;font-variant-ligatures:normal;font-variant-position:normal;font-variant-caps:normal;font-variant-numeric:normal;font-variant-alternates:normal;font-variant-east-asian:normal;font-feature-settings:normal;font-variation-settings:normal;text-indent:0;text-align:start;text-decoration-line:none;text-decoration-style:solid;text-decoration-color:#000;text-transform:none;text-orientation:mixed;white-space:normal;shape-padding:0;shape-margin:0;inline-size:0;isolation:auto;mix-blend-mode:normal;solid-color:#000;solid-opacity:1;fill:#ffffff;fill-opacity:1"
       d="M65.137 29.84a1.129 1.129 0 00-.807.315L27.654 65.46a1.129 1.129 0 00.471 1.898L76.984 81.44a1.129 1.129 0 001.409-1.355L66.21 30.698a1.129 1.129 0 00-1.073-.858zm-.651 3.3L75.734 78.73l-45.104-13L64.486 33.14z"
       overflow="visible"
       id="path4" />
    <path
       style="line-height:normal;font-variant-ligatures:normal;font-variant-position:normal;font-variant-caps:normal;font-variant-numeric:normal;font-variant-alternates:normal;font-variant-east-asian:normal;font-feature-settings:normal;font-variation-settings:normal;text-indent:0;text-align:start;text-decoration-line:none;text-decoration-style:solid;text-decoration-color:#000;text-transform:none;text-orientation:mixed;white-space:normal;shape-padding:0;shape-margin:0;inline-size:0;isolation:auto;mix-blend-mode:normal;solid-color:#000;solid-opacity:1;fill:#ffffff;fill-opacity:1"
       d="M46.914 47.313a1.129 1.129 0 00-1.076 1.399l6.054 24.531a1.129 1.129 0 001.88.543l18.222-17.563a1.129 1.129 0 00-.472-1.898l-24.277-6.968a1.129 1.129 0 00-.331-.044zm1.583 2.751l20.522 5.89L53.614 70.8l-5.117-20.736z"
       overflow="visible"
       id="path6" />
    <path
       style="line-height:normal;font-variant-ligatures:normal;font-variant-position:normal;font-variant-caps:normal;font-variant-numeric:normal;font-variant-alternates:normal;font-variant-east-asian:normal;font-feature-settings:normal;font-variation-settings:normal;text-indent:0;text-align:start;text-decoration-line:none;text-decoration-style:solid;text-decoration-color:#000;text-transform:none;text-orientation:mixed;white-space:normal;shape-padding:0;shape-margin:0;inline-size:0;isolation:auto;mix-blend-mode:normal;solid-color:#000;solid-opacity:1;fill:#ffffff;fill-opacity:1"
       d="M40.902 22.809a1.129 1.129 0 00-.807.316L21.873 40.687a1.129 1.129 0 00.472 1.898l24.273 6.969a1.129 1.129 0 001.408-1.356l-6.051-24.53a1.129 1.129 0 00-1.073-.86zm-.65 3.3l5.114 20.736-20.517-5.89 15.403-14.847zM89.453 36.793a1.129 1.129 0 00-.806.316L70.423 54.67a1.129 1.129 0 00.472 1.899l24.274 6.968a1.129 1.129 0 001.408-1.356l-6.05-24.53a1.129 1.129 0 00-1.074-.859zm-.65 3.3l5.114 20.737L73.4 54.94l15.403-14.846zM52.944 71.864a1.129 1.129 0 00-.74.315L33.982 89.742a1.129 1.129 0 00.472 1.898l24.278 6.968a1.129 1.129 0 001.407-1.355l-6.055-24.531a1.129 1.129 0 00-1.14-.858zm-.582 3.3l5.118 20.737-20.522-5.89 15.404-14.846z"
       overflow="visible"
       id="path8" />
  </g>
</svg>
